<?xml version="1.0" encoding="UTF-8"?>
<svg xmlns="http://www.w3.org/2000/svg" xmlns:xlink="http://www.w3.org/1999/xlink" width="854" height="480" viewBox="0 0 854 480">
<defs>
<g>
<g id="glyph-0-0">
<path d="M 3.902344 -3.464844 L 3.660156 -3.464844 C 3.613281 -3.636719 3.519531 -3.816406 3.375 -4.015625 C 3.230469 -4.210938 3.089844 -4.316406 2.957031 -4.335938 C 2.890625 -4.34375 2.8125 -4.351562 2.71875 -4.355469 C 2.628906 -4.359375 2.523438 -4.363281 2.40625 -4.363281 L 1.628906 -4.363281 L 1.628906 -2.507812 L 2.164062 -2.507812 C 2.324219 -2.507812 2.449219 -2.523438 2.539062 -2.558594 C 2.628906 -2.589844 2.703125 -2.640625 2.765625 -2.710938 C 2.808594 -2.757812 2.851562 -2.832031 2.886719 -2.933594 C 2.921875 -3.035156 2.945312 -3.144531 2.957031 -3.257812 L 3.199219 -3.257812 L 3.199219 -1.441406 L 2.957031 -1.441406 C 2.949219 -1.539062 2.925781 -1.644531 2.890625 -1.765625 C 2.851562 -1.890625 2.808594 -1.976562 2.765625 -2.03125 C 2.703125 -2.113281 2.617188 -2.167969 2.519531 -2.195312 C 2.421875 -2.226562 2.300781 -2.238281 2.164062 -2.238281 L 1.628906 -2.238281 L 1.628906 -0.648438 C 1.628906 -0.578125 1.644531 -0.515625 1.671875 -0.457031 C 1.703125 -0.402344 1.75 -0.355469 1.824219 -0.320312 C 1.855469 -0.308594 1.925781 -0.289062 2.035156 -0.265625 C 2.144531 -0.246094 2.226562 -0.234375 2.28125 -0.230469 L 2.28125 0 L 0.28125 0 L 0.28125 -0.230469 C 0.34375 -0.234375 0.433594 -0.242188 0.539062 -0.253906 C 0.648438 -0.261719 0.71875 -0.273438 0.75 -0.289062 C 0.816406 -0.316406 0.863281 -0.359375 0.894531 -0.414062 C 0.921875 -0.46875 0.9375 -0.539062 0.9375 -0.617188 L 0.9375 -3.949219 C 0.9375 -4.019531 0.925781 -4.082031 0.902344 -4.140625 C 0.878906 -4.195312 0.828125 -4.238281 0.75 -4.273438 C 0.691406 -4.300781 0.613281 -4.328125 0.515625 -4.347656 C 0.417969 -4.371094 0.339844 -4.382812 0.28125 -4.386719 L 0.28125 -4.617188 L 3.902344 -4.617188 Z "/>
</g>
<g id="glyph-0-1">
<path d="M 1.738281 0 L 0.171875 0 L 0.171875 -0.214844 C 0.222656 -0.21875 0.277344 -0.222656 0.332031 -0.230469 C 0.386719 -0.234375 0.433594 -0.242188 0.472656 -0.253906 C 0.53125 -0.273438 0.578125 -0.308594 0.609375 -0.355469 C 0.640625 -0.40625 0.652344 -0.46875 0.652344 -0.546875 L 0.652344 -4.265625 C 0.652344 -4.34375 0.636719 -4.417969 0.605469 -4.488281 C 0.570312 -4.554688 0.527344 -4.609375 0.472656 -4.648438 C 0.433594 -4.675781 0.359375 -4.699219 0.257812 -4.71875 C 0.152344 -4.742188 0.0703125 -4.753906 0.0078125 -4.757812 L 0.0078125 -4.96875 L 1.214844 -5.039062 L 1.257812 -4.992188 L 1.257812 -0.585938 C 1.257812 -0.511719 1.273438 -0.449219 1.300781 -0.398438 C 1.332031 -0.351562 1.375 -0.3125 1.4375 -0.285156 C 1.488281 -0.265625 1.535156 -0.25 1.582031 -0.238281 C 1.628906 -0.226562 1.679688 -0.21875 1.738281 -0.214844 Z "/>
</g>
<g id="glyph-0-2">
<path d="M 3.367188 -1.636719 C 3.367188 -1.410156 3.328125 -1.191406 3.257812 -0.972656 C 3.1875 -0.753906 3.085938 -0.570312 2.953125 -0.417969 C 2.800781 -0.242188 2.628906 -0.113281 2.429688 -0.0273438 C 2.234375 0.0546875 2.011719 0.0976562 1.765625 0.0976562 C 1.5625 0.0976562 1.367188 0.0585938 1.183594 -0.0195312 C 0.996094 -0.09375 0.832031 -0.207031 0.691406 -0.355469 C 0.550781 -0.5 0.4375 -0.675781 0.351562 -0.886719 C 0.269531 -1.097656 0.226562 -1.332031 0.226562 -1.589844 C 0.226562 -2.09375 0.375 -2.503906 0.667969 -2.820312 C 0.957031 -3.140625 1.339844 -3.300781 1.816406 -3.300781 C 2.265625 -3.300781 2.636719 -3.148438 2.925781 -2.847656 C 3.21875 -2.542969 3.367188 -2.140625 3.367188 -1.636719 M 2.691406 -1.628906 C 2.691406 -1.792969 2.675781 -1.964844 2.644531 -2.148438 C 2.609375 -2.328125 2.5625 -2.480469 2.496094 -2.605469 C 2.425781 -2.742188 2.335938 -2.851562 2.222656 -2.929688 C 2.109375 -3.011719 1.972656 -3.054688 1.808594 -3.054688 C 1.640625 -3.054688 1.496094 -3.011719 1.378906 -2.929688 C 1.261719 -2.847656 1.164062 -2.734375 1.089844 -2.589844 C 1.019531 -2.457031 0.972656 -2.308594 0.945312 -2.140625 C 0.914062 -1.96875 0.902344 -1.804688 0.902344 -1.648438 C 0.902344 -1.4375 0.917969 -1.246094 0.953125 -1.070312 C 0.984375 -0.890625 1.039062 -0.734375 1.113281 -0.59375 C 1.1875 -0.457031 1.28125 -0.347656 1.390625 -0.269531 C 1.503906 -0.1875 1.644531 -0.148438 1.808594 -0.148438 C 2.078125 -0.148438 2.296875 -0.28125 2.453125 -0.542969 C 2.613281 -0.804688 2.691406 -1.167969 2.691406 -1.628906 Z "/>
</g>
<g id="glyph-0-3">
<path d="M 2.691406 -2.796875 C 2.691406 -2.683594 2.664062 -2.585938 2.609375 -2.5 C 2.554688 -2.414062 2.472656 -2.375 2.359375 -2.375 C 2.238281 -2.375 2.144531 -2.40625 2.082031 -2.46875 C 2.019531 -2.53125 1.984375 -2.601562 1.984375 -2.675781 C 1.984375 -2.722656 1.988281 -2.765625 1.996094 -2.804688 C 2.003906 -2.84375 2.011719 -2.882812 2.019531 -2.921875 C 1.917969 -2.921875 1.796875 -2.882812 1.660156 -2.800781 C 1.523438 -2.71875 1.40625 -2.601562 1.3125 -2.449219 L 1.3125 -0.578125 C 1.3125 -0.503906 1.328125 -0.441406 1.355469 -0.394531 C 1.386719 -0.347656 1.429688 -0.308594 1.492188 -0.285156 C 1.546875 -0.265625 1.617188 -0.25 1.703125 -0.238281 C 1.789062 -0.226562 1.863281 -0.21875 1.925781 -0.214844 L 1.925781 0 L 0.234375 0 L 0.234375 -0.214844 C 0.285156 -0.21875 0.335938 -0.222656 0.390625 -0.226562 C 0.441406 -0.230469 0.488281 -0.242188 0.527344 -0.253906 C 0.589844 -0.273438 0.632812 -0.308594 0.664062 -0.355469 C 0.691406 -0.40625 0.707031 -0.46875 0.707031 -0.546875 L 0.707031 -2.527344 C 0.707031 -2.59375 0.691406 -2.660156 0.660156 -2.726562 C 0.628906 -2.789062 0.582031 -2.84375 0.527344 -2.882812 C 0.484375 -2.90625 0.4375 -2.925781 0.378906 -2.9375 C 0.324219 -2.949219 0.265625 -2.957031 0.199219 -2.960938 L 0.199219 -3.175781 L 1.265625 -3.25 L 1.3125 -3.203125 L 1.3125 -2.75 L 1.328125 -2.75 C 1.460938 -2.925781 1.613281 -3.058594 1.777344 -3.152344 C 1.941406 -3.242188 2.09375 -3.289062 2.230469 -3.289062 C 2.367188 -3.289062 2.476562 -3.242188 2.5625 -3.152344 C 2.648438 -3.066406 2.691406 -2.945312 2.691406 -2.796875 Z "/>
</g>
</g>
</defs>
<g fill="rgb(100%, 100%, 100%)" fill-opacity="1">
<use xlink:href="#glyph-0-0" x="30" y="26.112305"/>
<use xlink:href="#glyph-0-1" x="34" y="26.112305"/>
<use xlink:href="#glyph-0-2" x="36" y="26.112305"/>
<use xlink:href="#glyph-0-2" x="40" y="26.112305"/>
<use xlink:href="#glyph-0-3" x="44" y="26.112305"/>
</g>
</svg>
